<?xml version="1.0" encoding="UTF-8" standalone="no"?>
<!-- Created with Inkscape (http://www.inkscape.org/) -->

<svg
   width="204.98517mm"
   height="191.77496mm"
   viewBox="0 0 204.98517 191.77496"
   version="1.1"
   id="svg1"
   xml:space="preserve"
   inkscape:version="1.3.2 (091e20e, 2023-11-25)"
   sodipodi:docname="lilshrooms.svg"
   xmlns:inkscape="http://www.inkscape.org/namespaces/inkscape"
   xmlns:sodipodi="http://sodipodi.sourceforge.net/DTD/sodipodi-0.dtd"
   xmlns="http://www.w3.org/2000/svg"
   xmlns:svg="http://www.w3.org/2000/svg"><sodipodi:namedview
     id="namedview1"
     pagecolor="#ffffff"
     bordercolor="#000000"
     borderopacity="0.25"
     inkscape:showpageshadow="2"
     inkscape:pageopacity="0.0"
     inkscape:pagecheckerboard="0"
     inkscape:deskcolor="#d1d1d1"
     inkscape:document-units="mm"
     inkscape:zoom="0.45798191"
     inkscape:cx="236.90892"
     inkscape:cy="644.13025"
     inkscape:window-width="1648"
     inkscape:window-height="831"
     inkscape:window-x="0"
     inkscape:window-y="39"
     inkscape:window-maximized="0"
     inkscape:current-layer="layer1" /><defs
     id="defs1" /><g
     inkscape:label="Layer 1"
     inkscape:groupmode="layer"
     id="layer1"
     transform="translate(-4.7299151,-4.6274753)"><g
       id="g1"><path
         style="opacity:1;fill:#7b007b;fill-opacity:1;stroke:#19b8c6;stroke-width:1.79509;stroke-dasharray:none;stroke-opacity:1"
         d="M 100.26253,195.22684 C 48.744873,191.05344 9.6751227,154.23333 6.0920012,106.47868 l -0.4620085,-6.1575 0.4930517,-6.546124 C 9.476469,49.252639 45.103573,13.050438 92.118442,6.3915478 l 6.033211,-0.8545232 8.971297,-0.00598 8.9713,-0.00598 5.80496,0.8654733 C 169.21979,13.445694 203.9877,48.32584 208.22005,92.98995 l 0.59477,6.276955 -0.35432,5.541095 c -2.22779,34.83978 -22.70864,64.56957 -55.23856,80.18372 -16.23762,7.79396 -35.987,11.61122 -52.95941,10.2363 z m 56.78077,-31.87863 1.5327,-1.09139 v -1.52867 -1.52867 l -1.02077,-0.54627 c -0.56142,-0.30047 -1.50076,-0.54631 -2.08746,-0.54631 -1.67832,0 -4.90751,-2.48204 -6.58574,-5.06198 l -1.53336,-2.35725 1.46955,-3.45767 c 0.80824,-1.90172 2.2681,-4.4135 3.24412,-5.58172 0.97599,-1.16821 1.99557,-2.51432 2.2657,-2.99137 l 0.49114,-0.86736 2.44967,2.37476 c 1.34733,1.30611 2.93931,3.32466 3.53773,4.48563 1.63545,3.17295 3.56763,5.51051 5.29175,6.4021 l 1.54468,0.79879 2.1057,-0.35576 2.10573,-0.35575 1.7685,-1.55279 c 0.97267,-0.85401 2.25107,-2.5516 2.84088,-3.77238 l 1.07239,-2.21963 0.54229,-4.74951 c 1.8292,-16.01979 -2.25104,-28.24747 -10.66754,-31.96866 l -2.76614,-1.223 -5.93649,-0.21631 -5.93651,-0.2163 -3.65376,0.89539 c -9.35081,2.29152 -17.87477,10.23151 -18.70653,17.42495 l -0.30507,2.6386 0.64587,1.79761 c 0.86939,2.41963 2.66155,3.60065 6.45087,4.2511 1.74148,0.29888 4.3537,0.8708 5.80494,1.27081 1.45124,0.4 2.71779,0.51973 2.81452,0.26597 0.28063,-0.73593 1.67659,-0.53335 1.99219,0.28901 0.43983,1.14619 -0.60805,2.71002 -4.86894,7.2662 -3.5725,3.82007 -5.03493,6.12658 -5.78866,9.12962 l -0.27914,1.11221 2.14552,3.21294 2.14553,3.21298 3.29426,2.14058 c 6.59364,4.28453 9.89687,5.12989 12.57988,3.21944 z m 8.72842,-24.85842 c -2.36465,-2.41685 -5.6041,-5.89424 -7.1988,-7.72751 l -2.8994,-3.33322 -3.89672,-0.98607 c -2.14319,-0.54236 -5.46785,-1.14823 -7.38815,-1.34641 l -3.49139,-0.3603 -0.92352,-0.81135 c -0.50795,-0.44626 -0.92351,-1.11254 -0.92351,-1.48065 0,-1.95208 6.03339,-6.50583 9.76287,-7.36861 0.87074,-0.20135 2.59256,-0.85542 3.8263,-1.45331 l 2.24309,-1.08705 3.75889,0.58182 3.75892,0.58182 1.91383,1.53352 c 2.46332,1.97379 4.94279,5.7384 6.94407,10.54335 l 1.59021,3.818 0.45437,3.83399 c 0.24982,2.10872 0.30388,5.02138 0.11997,6.47262 l -0.33436,2.63863 -1.50866,0.17263 -1.50865,0.17263 z m -40.58845,12.229 c 0.59989,0 2.25703,-4.63412 2.25703,-6.31166 v -2.13194 l -1.05545,-1.05543 -1.05543,-1.05545 h -2.33284 -2.33281 l -0.37,-1.71512 c -0.42319,-1.96165 -3.0799,-8.7637 -7.88395,-20.18541 -1.8312,-4.35373 -4.1019,-10.76555 -5.046,-14.24854 -2.01251,-7.424494 -3.09127,-9.810798 -5.706,-12.621911 l -1.922986,-2.067436 2.110876,1.216174 c 9.03107,5.203191 12.72358,7.079331 14.65444,7.445799 l 2.23273,0.423761 2.11088,-0.545618 2.11091,-0.545648 2.37475,-2.467024 c 4.65252,-4.833252 6.86039,-10.819223 6.86039,-18.599776 v -4.583945 l -1.58135,-3.880687 c -0.86976,-2.134364 -1.58217,-4.368504 -1.58319,-4.964744 -0.003,-2.681267 -4.90224,-8.141934 -11.23843,-12.529975 -5.36233,-3.713624 -11.8456,-8.559712 -14.0941,-10.534941 -2.67582,-2.350641 -8.361026,-5.351106 -14.248526,-7.519905 -2.176862,-0.801898 -4.789094,-1.771336 -5.80496,-2.154319 l -1.847032,-0.696346 -5.397121,-0.02393 -5.397118,-0.02393 -3.517535,1.323999 c -7.483869,2.816917 -18.210238,9.406038 -22.798982,14.005211 -4.267042,4.276745 -13.485502,19.365533 -17.02336,27.863853 -4.154625,9.979869 -4.201602,21.379864 -0.117429,28.493148 0.776515,1.35243 3.208064,4.24453 5.403443,6.42691 l 3.991597,3.96793 4.221788,2.1787 c 2.321983,1.19831 6.240329,2.83469 8.707436,3.63641 l 4.485652,1.45767 6.596544,0.0476 6.596544,0.0476 1.847032,-0.92594 c 2.159844,-1.08274 3.954935,-3.59081 4.43517,-6.19671 0.328232,-1.78112 10.853985,-23.227225 11.39435,-23.215856 0.14633,0.003 1.174794,3.862048 2.285483,8.575509 2.77183,11.762847 4.419747,16.764567 8.561232,25.984777 1.955602,4.35373 4.461552,9.93039 5.568792,12.39257 1.10727,2.4622 2.31992,4.71821 2.69476,5.01339 0.37485,0.29529 1.35173,1.43377 2.17083,2.53027 l 1.4893,1.99365 5.89885,3.01253 c 7.02569,3.58805 7.54878,3.76254 9.58941,3.19918 0.86882,-0.23995 1.6358,-0.43609 1.70438,-0.43609 z M 50.420935,108.94836 C 40.251316,105.2908 36.009588,100.86465 34.314441,92.141463 l -0.666583,-3.430209 0.40736,-5.013361 c 0.670733,-8.254726 2.24749,-12.118241 10.209078,-25.015282 5.335328,-8.642765 9.505076,-12.247577 20.949302,-18.111003 l 5.952017,-3.049531 4.20521,-0.191476 4.20521,-0.191476 -0.389118,0.982991 C 78.972912,38.662768 76.811805,47.535484 74.384482,57.839277 71.95716,68.1431 69.6249,77.523378 69.201683,78.684354 65.701708,88.285697 56.062341,110.61576 55.432446,110.58148 c -0.304767,-0.0179 -2.559949,-0.75155 -5.011511,-1.63327 z M 103.42889,81.752852 c -0.5805,-0.13164 -3.19272,-1.662015 -5.804964,-3.40077 l -4.749512,-3.161395 -1.337711,-2.474862 -1.33771,-2.474892 0.573935,-4.749512 c 0.315667,-2.612216 1.201248,-6.649316 1.967991,-8.971296 0.766714,-2.321981 1.535402,-5.10515 1.708209,-6.184807 l 0.314171,-1.963022 2.749631,1.075888 c 1.512274,0.591752 3.729,1.645709 4.92603,2.342145 3.00507,1.748359 13.07772,11.765446 13.77711,13.701092 2.33811,6.471005 2.85919,10.908799 1.57816,13.440446 l -0.65922,1.302787 -2.89515,0.907778 c -2.69105,0.843812 -8.36884,1.164415 -10.81097,0.61042 z"
         id="path1" /></g></g></svg>
